<svg xmlns="http://www.w3.org/2000/svg" viewBox="0 0 310 72" role="img" aria-labelledby="title"><title id="title">KhelaGhor</title><g transform="translate(4 4)"><rect width="64" height="64" rx="18" fill="#ff5c75"/><path d="M12 30 32 12l20 18v20a4 4 0 0 1-4 4H16a4 4 0 0 1-4-4Z" fill="#fff"/><path d="M27 27a3 3 0 0 1 4.5-2.6l13 7.7a3 3 0 0 1 0 5.2l-13 7.7a3 3 0 0 1-4.5-2.6Z" fill="#10264a"/><circle cx="16" cy="17" r="6" fill="#ffd166"/></g><text x="82" y="42" fill="#fff" font-family="Nunito,Arial,sans-serif" font-size="32" font-weight="900">KhelaGhor</text><text x="84" y="60" fill="#ffd166" font-family="Nunito,Arial,sans-serif" font-size="13" font-weight="700">PLAY • SMILE • LEARN</text></svg>
